<?xml version="1.0" standalone="no"?>
<!DOCTYPE svg PUBLIC "-//W3C//DTD SVG 20010904//EN"
 "http://www.w3.org/TR/2001/REC-SVG-20010904/DTD/svg10.dtd">
<svg version="1.0" xmlns="http://www.w3.org/2000/svg"
 width="500.000000pt" height="500.000000pt" viewBox="0 0 500.000000 500.000000"
 preserveAspectRatio="xMidYMid meet">
<metadata>
Created by potrace 1.14, written by Peter Selinger 2001-2017
</metadata>
<g transform="translate(0.000000,500.000000) scale(0.100000,-0.100000)"
fill="#000000" stroke="none">
<path d="M2320 4857 c-3 -3 -39 -7 -80 -11 -216 -18 -483 -90 -698 -188 -34
-15 -64 -28 -66 -28 -5 0 -194 -107 -251 -142 -329 -202 -661 -574 -846 -950
-42 -87 -124 -292 -134 -338 -2 -8 -11 -37 -19 -65 -20 -63 -62 -269 -73 -355
-4 -36 -8 -173 -7 -305 1 -251 12 -349 65 -560 150 -597 548 -1130 1081 -1446
194 -116 406 -204 623 -260 93 -24 82 -22 216 -46 129 -22 582 -26 719 -5 227
35 517 128 715 230 443 228 794 572 1023 1002 74 138 157 342 188 460 64 248
76 337 80 610 3 239 -5 345 -42 525 -27 134 -91 335 -139 440 -7 17 -29 64
-48 105 -38 84 -140 257 -200 340 -106 145 -277 331 -390 424 -22 17 -51 41
-65 54 -57 49 -265 184 -364 236 -129 69 -282 133 -413 174 -98 31 -344 84
-375 81 -8 -1 -17 0 -20 1 -25 9 -74 12 -260 16 -119 3 -218 3 -220 1z"/>
</g>
</svg>
